<svg width="55" height="54" viewBox="0 0 55 54" fill="none" xmlns="http://www.w3.org/2000/svg">
<g clip-path="url(#clip0_151_579)">
<path d="M27.2702 0C42.1819 0 54.2702 12.0883 54.2702 27C54.2702 40.8043 43.9102 52.1875 30.5413 53.8022V35.2507L37.8454 35.2507L39.3605 27H30.5413V24.0819C30.5413 21.9019 30.969 20.3926 31.9499 19.4284C32.931 18.4641 34.4655 18.0448 36.6791 18.0448C37.2393 18.0448 37.755 18.0504 38.2126 18.0616C38.8782 18.0778 39.4207 18.1058 39.7983 18.1455V10.6661C39.6474 10.6241 39.4692 10.5822 39.2696 10.5409C38.8174 10.4474 38.2552 10.3573 37.6509 10.2781C36.388 10.1127 34.9411 9.99518 33.9289 9.99518C29.8406 9.99518 26.751 10.8698 24.5943 12.6814C21.9915 14.8678 20.7477 18.419 20.7477 23.4447V27H15.1801V35.2507H20.7477V53.2049C8.98748 50.2871 0.270264 39.6624 0.270264 27C0.270264 12.0883 12.3586 0 27.2702 0Z" fill="black"/>
</g>
<defs>
<clipPath id="clip0_151_579">
<rect width="54" height="54" fill="white" transform="translate(0.270264)"/>
</clipPath>
</defs>
</svg>
