<svg width="54" height="54" viewBox="0 0 54 54" fill="none" xmlns="http://www.w3.org/2000/svg">
<rect width="54" height="54" rx="27" fill="black"/>
<path d="M36.3334 19.7348C35.1735 19.7371 34.2304 18.798 34.2282 17.6381C34.2259 16.4782 35.165 15.5352 36.3254 15.5329C37.4858 15.5306 38.4289 16.4703 38.4312 17.6302C38.4329 18.79 37.4938 19.7326 36.3334 19.7348Z" fill="#F4F4F4"/>
<path fill-rule="evenodd" clip-rule="evenodd" d="M27.0166 35.9916C22.0509 36.0012 18.017 31.9837 18.0074 27.0169C17.9977 22.0511 22.0163 18.0166 26.982 18.0069C31.9488 17.9973 35.9833 22.0171 35.9929 26.9823C36.0025 31.9491 31.9828 35.9819 27.0166 35.9916ZM26.9882 21.1625C23.7652 21.1682 21.1561 23.787 21.1618 27.0106C21.168 30.2349 23.7873 32.8434 27.0104 32.8372C30.2345 32.8309 32.8436 30.2127 32.8374 26.9885C32.8311 23.7643 30.2119 21.1563 26.9882 21.1625Z" fill="#F4F4F4"/>
<path fill-rule="evenodd" clip-rule="evenodd" d="M15.4981 10.4298C16.6103 9.99404 17.8831 9.69556 19.7466 9.60761C21.6146 9.51796 22.211 9.49752 26.9661 9.48845C31.7224 9.47937 32.3187 9.49752 34.1867 9.58037C36.0508 9.66094 37.3241 9.95489 38.4386 10.3861C39.5916 10.8305 40.5699 11.4285 41.5447 12.3994C42.5196 13.3715 43.12 14.3464 43.5699 15.4977C44.0052 16.611 44.3036 17.8827 44.3922 19.7473C44.4807 21.6148 44.5022 22.2106 44.5113 26.9664C44.5204 31.7216 44.5011 32.3185 44.4194 34.1877C44.3382 36.0506 44.0449 37.3245 43.6136 38.4384C43.1682 39.5915 42.5712 40.5697 41.6003 41.5446C40.6294 42.5201 39.6535 43.1199 38.5021 43.5704C37.3888 44.0051 36.1172 44.3035 34.2537 44.3926C32.3857 44.4812 31.7893 44.5022 27.0325 44.5112C22.2779 44.5203 21.6815 44.5022 19.8135 44.4199C17.9495 44.3382 16.6756 44.0448 15.5617 43.6141C14.4087 43.1681 13.4304 42.5717 12.4555 41.6002C11.4801 40.6288 10.8792 39.6533 10.4298 38.502C9.99401 37.3892 9.69665 36.117 9.60757 34.2541C9.51849 32.3855 9.4975 31.7885 9.48843 27.0333C9.47932 22.2775 9.49806 21.6817 9.57976 19.8137C9.66205 17.9491 9.95428 16.6757 10.3855 15.5607C10.831 14.4082 11.4279 13.4305 12.3999 12.4551C13.3708 11.4802 14.3468 10.8787 15.4981 10.4298ZM16.6983 40.6719C17.3162 40.9096 18.2434 41.1934 19.9509 41.2677C21.7984 41.3477 22.3517 41.3653 27.0268 41.3562C31.7036 41.3477 32.2569 41.3278 34.1039 41.241C35.8096 41.1599 36.7368 40.8727 37.353 40.6322C38.1708 40.3127 38.7529 39.9308 39.3646 39.3185C39.9763 38.704 40.3548 38.1201 40.6714 37.3024C40.9098 36.6839 41.1929 35.7561 41.2672 34.0486C41.3484 32.2022 41.3654 31.6484 41.3563 26.972C41.3478 22.2968 41.328 21.743 41.24 19.896C41.1594 18.1897 40.8729 17.2624 40.6317 16.6468C40.3123 15.828 39.9315 15.2469 39.3175 14.6346C38.7036 14.0223 38.1197 13.645 37.3009 13.3284C36.684 13.0895 35.7557 12.8069 34.0494 12.7325C32.2018 12.6514 31.648 12.6349 26.9718 12.644C22.2966 12.6531 21.7434 12.6718 19.8964 12.7592C18.1895 12.8403 17.2634 13.1269 16.6461 13.3681C15.829 13.6875 15.2468 14.0672 14.6345 14.6817C14.0234 15.2962 13.6449 15.879 13.3283 16.6984C13.0911 17.3158 12.8056 18.2441 12.7325 19.9505C12.6519 21.7981 12.6349 22.3519 12.6439 27.0271C12.6525 31.7034 12.6723 32.2572 12.7591 34.1031C12.8391 35.8106 13.1279 36.7366 13.368 37.3546C13.6875 38.1711 14.0682 38.7533 14.6816 39.3656C15.2962 39.9756 15.88 40.3552 16.6983 40.6719Z" fill="#F4F4F4"/>
</svg>
