<svg width="30" height="30" viewBox="0 0 30 30" fill="none" xmlns="http://www.w3.org/2000/svg">
<path d="M26.4707 0C28.4199 6.19746e-05 29.9999 1.58015 30 3.5293V26.4707C29.9999 28.4199 28.4199 29.9999 26.4707 30H3.5293C1.58015 29.9999 6.20958e-05 28.4199 0 26.4707V3.5293C6.1975e-05 1.58015 1.58015 6.20954e-05 3.5293 0H26.4707ZM11.0293 6.17578C8.34929 6.17591 6.17591 8.34929 6.17578 11.0293V18.9707C6.17597 21.6507 8.34932 23.8231 11.0293 23.8232H18.9707C21.6506 23.8231 23.8231 21.6506 23.8232 18.9707V11.0293C23.8231 8.34932 21.6507 6.17597 18.9707 6.17578H11.0293ZM18.9707 7.94141C20.676 7.94159 22.0585 9.32394 22.0586 11.0293V18.9707C22.0584 20.676 20.676 22.0584 18.9707 22.0586H11.0293C9.32394 22.0585 7.94159 20.676 7.94141 18.9707V11.0293C7.94154 9.3239 9.3239 7.94154 11.0293 7.94141H18.9707ZM15.6299 10.9512C14.7855 10.8261 13.9227 10.9711 13.165 11.3643C12.4075 11.7575 11.7929 12.3792 11.4092 13.1416C11.0255 13.9041 10.8917 14.7686 11.0273 15.6113C11.1631 16.454 11.5615 17.2334 12.165 17.8369C12.7685 18.4401 13.5472 18.838 14.3896 18.9736C15.2324 19.1092 16.0969 18.9755 16.8594 18.5918C17.6219 18.208 18.2445 17.5936 18.6377 16.8359C18.9817 16.173 19.1348 15.4295 19.084 14.6885L19.0498 14.3711C18.9221 13.51 18.5207 12.7123 17.9053 12.0967C17.3666 11.558 16.6882 11.1826 15.9502 11.0117L15.6299 10.9512ZM13.9785 12.9307C14.4067 12.7085 14.8939 12.6266 15.3711 12.6973L15.5518 12.7314C15.969 12.828 16.3527 13.0402 16.6572 13.3447C17.0049 13.6926 17.2315 14.1434 17.3037 14.6299L17.3232 14.8096C17.3519 15.2283 17.2656 15.6489 17.0713 16.0234C16.8491 16.4515 16.4972 16.7988 16.0664 17.0156C15.6355 17.2325 15.1462 17.308 14.6699 17.2314C14.194 17.1548 13.7541 16.9296 13.4131 16.5889C13.072 16.2478 12.8463 15.8073 12.7695 15.3311C12.6929 14.8549 12.7687 14.3664 12.9854 13.9355C13.2023 13.5045 13.5502 13.1529 13.9785 12.9307ZM19.3682 9.75C18.8809 9.75 18.4854 10.1455 18.4854 10.6328C18.4856 11.1199 18.881 11.5156 19.3682 11.5156H19.377L19.4678 11.5107C19.9122 11.4653 20.2595 11.0892 20.2598 10.6328C20.2598 10.1762 19.9123 9.80042 19.4678 9.75488L19.377 9.75H19.3682Z" fill="white"/>
</svg>
