<svg width="30" height="28" viewBox="0 0 30 28" fill="none" xmlns="http://www.w3.org/2000/svg">
<path d="M11.8231 10.561L12.685 13.0318H10.9613L11.8231 10.561Z" fill="white"/>
<path fill-rule="evenodd" clip-rule="evenodd" d="M0 11.9552C0 5.38159 6.71423 0.0546875 14.9944 0.0546875C23.2745 0.0546875 30 5.38725 30 11.9609C30 18.5345 23.2858 23.8614 15.0056 23.8614C14.0988 23.8614 13.2032 23.7991 12.3413 23.6744C12.2749 23.7209 12.1847 23.7844 12.0744 23.8619C10.735 24.8036 6.44166 27.8221 6.00451 27.8849C6.00451 27.8849 5.80736 27.9586 5.64401 27.8622C5.48066 27.7659 5.50882 27.5109 5.50882 27.5109L7.02967 22.0423C2.80511 19.9286 0 16.2054 0 11.9552ZM6.70013 16.1033C6.70108 16.1033 6.70203 16.1033 6.70298 16.1033H6.69734C6.69827 16.1033 6.6992 16.1033 6.70013 16.1033ZM5.83553 15.2702C5.83553 15.7283 6.22265 16.1018 6.70013 16.1033C7.17204 16.1018 7.56479 15.7227 7.56479 15.2702V10.0963H8.91664C9.37853 10.0963 9.76156 9.71666 9.76156 9.2463C9.76156 8.77595 9.38416 8.39627 8.91664 8.39627H4.48367C4.02179 8.39627 3.63876 8.77595 3.63876 9.2463C3.63876 9.71666 4.01616 10.0963 4.48367 10.0963H5.83553V15.2702ZM13.5693 15.7066C13.6538 15.9446 13.9298 16.0919 14.2903 16.0919C14.4818 16.0919 14.6733 16.0579 14.8423 15.9786C15.0789 15.8766 15.3098 15.5649 15.0451 14.7432L12.9779 9.26331C12.837 8.84395 12.3864 8.3906 11.8231 8.40193C11.2599 8.41327 10.8149 8.84395 10.6684 9.26331L8.60121 14.7432C8.33647 15.5649 8.56741 15.8653 8.80399 15.9786C8.9786 16.0523 9.16449 16.0919 9.356 16.0919C9.71649 16.0919 9.9925 15.9446 10.077 15.7066L10.5051 14.5732H13.1412L13.5693 15.7066ZM15.6083 15.1852C15.6083 15.6216 15.9857 15.9786 16.4364 15.9786L19.2133 15.9616C19.6696 15.9616 20.0413 15.6046 20.0413 15.1682C20.0413 14.7319 19.6639 14.3749 19.2133 14.3749H17.377V9.26331C17.377 8.78728 16.9827 8.3906 16.4927 8.3906C16.0026 8.3906 15.6083 8.78162 15.6083 9.26331V15.1852ZM20.3736 9.26897V15.2192C20.3736 16.3766 22.1085 16.333 22.1085 15.2022V13.3038L22.4071 13.0035L24.4349 15.7066C24.7071 16.0655 25.2657 16.1599 25.6459 15.8766C26.0316 15.6062 26.101 15.0323 25.8149 14.6639L23.6857 11.8304L25.6684 9.847C25.9677 9.54059 25.8932 9.05305 25.6065 8.76462C25.3013 8.45756 24.7972 8.43405 24.5306 8.70228L22.1085 11.1391V9.26897C22.1085 8.79295 21.7142 8.39627 21.2411 8.39627C20.7679 8.39627 20.3736 8.78729 20.3736 9.26897Z" fill="white"/>
</svg>
