<svg width="24" height="24" viewBox="0 0 24 24" fill="none" xmlns="http://www.w3.org/2000/svg">
<g clip-path="url(#clip0_316_145)">
<path d="M9.45851 9.24882L10.148 11.2254H8.76907L9.45851 9.24882Z" fill="black"/>
<path fill-rule="evenodd" clip-rule="evenodd" d="M0 10.3642C0 5.10527 5.37139 0.84375 11.9955 0.84375C18.6196 0.84375 24 5.1098 24 10.3687C24 15.6276 18.6286 19.8891 12.0045 19.8891C11.279 19.8891 10.5625 19.8392 9.87307 19.7395C9.81993 19.7768 9.74772 19.8275 9.65949 19.8896C8.58801 20.6429 5.15333 23.0577 4.8036 23.1079C4.8036 23.1079 4.64589 23.1669 4.51521 23.0898C4.38453 23.0127 4.40706 22.8087 4.40706 22.8087L5.62373 18.4339C2.24409 16.7428 0 13.7643 0 10.3642ZM5.3601 13.6826C5.36086 13.6826 5.36162 13.6826 5.36238 13.6826H5.35787C5.35862 13.6826 5.35936 13.6826 5.3601 13.6826ZM4.66843 13.0162C4.66843 13.3827 4.97812 13.6814 5.3601 13.6826C5.73763 13.6814 6.05183 13.3782 6.05183 13.0162V8.87707H7.13332C7.50282 8.87707 7.80925 8.57333 7.80925 8.19704C7.80925 7.82076 7.50733 7.51702 7.13332 7.51702H3.58694C3.21743 7.51702 2.91101 7.82076 2.91101 8.19704C2.91101 8.57333 3.21293 8.87707 3.58694 8.87707H4.66843V13.0162ZM10.8554 13.3653C10.923 13.5557 11.1438 13.6735 11.4322 13.6735C11.5854 13.6735 11.7386 13.6463 11.8738 13.5829C12.0631 13.5013 12.2478 13.2519 12.0361 12.5946L10.3823 8.21065C10.2696 7.87516 9.90913 7.51248 9.45851 7.52155C9.00789 7.53062 8.6519 7.87516 8.53474 8.21065L6.88097 12.5946C6.66918 13.2519 6.85393 13.4922 7.04319 13.5829C7.18288 13.6418 7.33159 13.6735 7.4848 13.6735C7.7732 13.6735 7.994 13.5557 8.06159 13.3653L8.40406 12.4586H10.513L10.8554 13.3653ZM12.4867 12.9482C12.4867 13.2973 12.7886 13.5829 13.1491 13.5829L15.3706 13.5693C15.7356 13.5693 16.0331 13.2837 16.0331 12.9346C16.0331 12.5855 15.7311 12.2999 15.3706 12.2999H13.9016V8.21065C13.9016 7.82983 13.5862 7.51248 13.1942 7.51248C12.8021 7.51248 12.4867 7.82529 12.4867 8.21065V12.9482ZM16.2989 8.21518V12.9754C16.2989 13.9012 17.6868 13.8664 17.6868 12.9618V11.4431L17.9257 11.2028L19.5479 13.3653C19.7657 13.6524 20.2126 13.728 20.5167 13.5013C20.8252 13.2849 20.8808 12.8258 20.6519 12.5311L18.9486 10.2643L20.5347 8.6776C20.7742 8.43248 20.7145 8.04244 20.4852 7.8117C20.241 7.56605 19.8378 7.54724 19.6245 7.76183L17.6868 9.71124V8.21518C17.6868 7.83436 17.3714 7.51702 16.9929 7.51702C16.6144 7.51702 16.2989 7.82983 16.2989 8.21518Z" fill="black"/>
</g>
<defs>
<clipPath id="clip0_316_145">
<rect width="24" height="24" fill="white"/>
</clipPath>
</defs>
</svg>
