<svg width="30" height="30" viewBox="0 0 30 30" fill="none" xmlns="http://www.w3.org/2000/svg">
<path d="M26.4707 0C28.4199 6.19746e-05 29.9999 1.58015 30 3.5293V26.4707C29.9999 28.4199 28.4199 29.9999 26.4707 30H3.5293C1.58015 29.9999 6.20958e-05 28.4199 0 26.4707V3.5293C6.1975e-05 1.58015 1.58015 6.20954e-05 3.5293 0H26.4707ZM19.958 7.17773C19.17 6.98056 18.34 7.02967 17.5811 7.31934C16.8223 7.609 16.171 8.12497 15.7148 8.79688C15.2586 9.46891 15.0194 10.265 15.0303 11.0771V11.9629C13.4749 12.0032 11.9337 11.6575 10.5439 10.958C9.15415 10.2585 7.95869 9.2264 7.06445 7.95312C7.04345 8.00058 3.54801 15.9291 11.4902 19.459C9.66735 20.6964 7.49538 21.3171 5.29395 21.2295C13.26 25.6551 22.9971 21.2297 22.9971 11.0508C22.9963 10.8043 22.972 10.5585 22.9258 10.3164C23.8291 9.42552 24.4664 8.3001 24.7666 7.06738C23.919 7.66526 22.9805 8.1228 21.9873 8.42188C21.4543 7.80905 20.7459 7.37489 19.958 7.17773Z" fill="white"/>
</svg>
