<svg width="55" height="54" viewBox="0 0 55 54" fill="none" xmlns="http://www.w3.org/2000/svg">
<rect x="0.540527" width="54" height="54" rx="27" fill="black"/>
<path fill-rule="evenodd" clip-rule="evenodd" d="M43.1897 16.4745C43.7332 17.0214 44.1235 17.7015 44.3215 18.4467C45.0539 21.1971 45.0539 26.9328 45.0539 26.9328C45.0539 26.9328 45.0539 32.6685 44.3215 35.4189C44.1235 36.1641 43.7332 36.8442 43.1897 37.3911C42.6463 37.9381 41.9687 38.3327 41.2248 38.5355C38.4863 39.2719 27.5404 39.2719 27.5404 39.2719C27.5404 39.2719 16.5944 39.2719 13.8559 38.5355C13.1121 38.3327 12.4345 37.9381 11.891 37.3911C11.3475 36.8442 10.9573 36.1641 10.7592 35.4189C10.0269 32.6685 10.0269 26.9328 10.0269 26.9328C10.0269 26.9328 10.0269 21.1971 10.7592 18.4467C10.9573 17.7015 11.3475 17.0214 11.891 16.4745C12.4345 15.9275 13.1121 15.5329 13.8559 15.3301C16.5944 14.5938 27.5404 14.5938 27.5404 14.5938C27.5404 14.5938 38.4863 14.5938 41.2248 15.3301C41.9687 15.5329 42.6463 15.9275 43.1897 16.4745ZM33.1129 26.9329L23.9581 21.7246V32.1411L33.1129 26.9329Z" fill="#F4F4F4"/>
</svg>
